<?xml version="1.0" encoding="UTF-8"?>
<svg version="1.1" xmlns="http://www.w3.org/2000/svg" width="148" height="127">
<path d="M0 0 C48.84 0 97.68 0 148 0 C148 41.91 148 83.82 148 127 C99.16 127 50.32 127 0 127 C0 85.09 0 43.18 0 0 Z " fill="#FDFEFE" transform="translate(0,0)"/>
<path d="M0 0 C1.5703125 1.86328125 1.5703125 1.86328125 3.125 4.3125 C3.90230469 5.51326172 3.90230469 5.51326172 4.6953125 6.73828125 C7.67850476 11.90974328 7.77342437 17.18735704 7 23 C4.47821373 29.70539482 -1.18074588 32.605419 -7.38647461 35.55419922 C-14.4385608 38.74763175 -21.65662962 41.55220987 -29 44 C-27.68495318 46.86041258 -26.23015373 49.0798582 -24.13671875 51.42578125 C-23.57919922 52.05806641 -23.02167969 52.69035156 -22.44726562 53.34179688 C-21.86654297 53.99212891 -21.28582031 54.64246094 -20.6875 55.3125 C-16.4790874 60.03564483 -12.59330648 64.78869436 -9 70 C-21.62282656 75.2752111 -31.95378876 79.1766791 -45.75 76.1875 C-53.72281103 70.82118489 -59.51332928 62.47846428 -65.484375 55.046875 C-67.43718102 52.68167516 -69.41970255 50.37263978 -71.453125 48.078125 C-72.34777466 47.06540527 -72.34777466 47.06540527 -73.26049805 46.03222656 C-74.4459122 44.69536335 -75.63734018 43.36380448 -76.83520508 42.03808594 C-77.37556396 41.42739258 -77.91592285 40.81669922 -78.47265625 40.1875 C-79.20367554 39.37345703 -79.20367554 39.37345703 -79.94946289 38.54296875 C-81 37 -81 37 -81 34 C-80.44084396 33.77973145 -79.88168793 33.55946289 -79.30558777 33.33251953 C-73.38130683 30.99825615 -67.45827175 28.66085157 -61.53588867 26.32177734 C-59.33795192 25.45414121 -57.13971914 24.58725456 -54.94116211 23.72119141 C-44.0425477 19.42742093 -33.14991028 15.11911644 -22.33203125 10.625 C-21.20005562 10.16081665 -21.20005562 10.16081665 -20.04521179 9.68725586 C-14.61628444 7.40831971 -9.84431306 4.66179154 -5.03125 1.25 C-3 0 -3 0 0 0 Z " fill="#58E1FE" transform="translate(108,46)"/>
<path d="M0 0 C4.49057919 1.49685973 6.6652467 5.10295824 9 9 C10.90102139 14.70306416 10.96029463 20.78714716 8.5625 26.3125 C2.00928959 33.18537921 -6.34941884 36.69646746 -15.04296875 40.14453125 C-16.7338134 40.82741463 -16.7338134 40.82741463 -18.45881653 41.52409363 C-20.82597591 42.47755689 -23.19513057 43.42608006 -25.56616211 44.36987305 C-29.19181639 45.81421951 -32.8100864 47.2759658 -36.42773438 48.74023438 C-38.73656467 49.66769918 -41.04579599 50.59416644 -43.35546875 51.51953125 C-44.97282173 52.17257988 -44.97282173 52.17257988 -46.62284851 52.83882141 C-47.6344252 53.23981552 -48.64600189 53.64080963 -49.68823242 54.05395508 C-50.57153732 54.40669998 -51.45484222 54.75944489 -52.36491394 55.12287903 C-55.24868205 56.08277689 -57.98050906 56.65915002 -61 57 C-62.6875 55.95532227 -62.6875 55.95532227 -64 54.31640625 C-64.495 53.71763672 -64.99 53.11886719 -65.5 52.50195312 C-65.995 51.86193359 -66.49 51.22191406 -67 50.5625 C-67.495 49.95728516 -67.99 49.35207031 -68.5 48.72851562 C-72.12958163 44.25297682 -75.56614749 39.62641609 -79 35 C-74.89755513 33.28751809 -70.79293237 31.5803043 -66.6875 29.875 C-65.73568848 29.47917221 -65.73568848 29.47917221 -64.76464844 29.0753479 C-56.78245907 25.75875716 -48.78059807 22.50025329 -40.73828125 19.33203125 C-39.96747726 19.02749023 -39.19667328 18.72294922 -38.4025116 18.40917969 C-34.64531721 16.92503132 -30.88540556 15.44870249 -27.11987305 13.98583984 C-12.53070186 8.68581056 -12.53070186 8.68581056 0 0 Z " fill="#30DAFE" transform="translate(111,4)"/>
<path d="M0 0 C1.5703125 1.86328125 1.5703125 1.86328125 3.125 4.3125 C3.90230469 5.51326172 3.90230469 5.51326172 4.6953125 6.73828125 C7.67850476 11.90974328 7.77342437 17.18735704 7 23 C4.47851087 29.70460474 -1.18235925 32.61118812 -7.39086914 35.55419922 C-13.47800062 38.30559864 -19.66047137 40.8897305 -26 43 C-27.28970703 43.44472656 -27.28970703 43.44472656 -28.60546875 43.8984375 C-31 44 -31 44 -33.140625 42.296875 C-34.18476562 41.03617188 -34.18476562 41.03617188 -35.25 39.75 C-36.01699219 38.83992188 -36.78398438 37.92984375 -37.57421875 36.9921875 C-38.37472656 36.00476563 -39.17523438 35.01734375 -40 34 C-40.85964357 32.96008229 -41.7203245 31.92102124 -42.58203125 30.8828125 C-44.73817677 28.26827384 -46.87625453 25.64087498 -49 23 C-47.44496453 19.88992906 -44.92090868 19.61818091 -41.7265625 18.390625 C-41.08818451 18.1413324 -40.44980652 17.89203979 -39.79208374 17.63519287 C-37.06284166 16.56952558 -34.32759699 15.51969733 -31.59228516 14.46972656 C-17.54051884 9.22083584 -17.54051884 9.22083584 -4.88916016 1.32519531 C-3 0 -3 0 0 0 Z " fill="#1D86F8" transform="translate(108,46)"/>
<path d="M0 0 C1.77477498 1.36733154 3.18095164 2.71013598 4.62011719 4.42651367 C5.38582031 5.33046875 5.38582031 5.33046875 6.16699219 6.25268555 C6.94816406 7.1953125 6.94816406 7.1953125 7.74511719 8.15698242 C8.26589844 8.77379883 8.78667969 9.39061523 9.32324219 10.02612305 C10.80801032 11.79022256 12.27749075 13.56611906 13.74511719 15.34448242 C14.52886719 16.27647461 15.31261719 17.2084668 16.12011719 18.16870117 C17.74511719 20.34448242 17.74511719 20.34448242 17.74511719 22.34448242 C13.55167962 24.08616697 9.35254362 25.81298889 5.14746094 27.52636719 C3.71806646 28.11119317 2.29030771 28.70003393 0.86425781 29.29296875 C-1.18689954 30.14499895 -3.24352305 30.98237594 -5.30175781 31.81713867 C-5.93732605 32.08478531 -6.57289429 32.35243195 -7.22772217 32.62818909 C-9.75939204 33.64168521 -11.7800021 34.3803244 -14.52563477 34.1730957 C-17.64641583 32.67769391 -19.56934861 29.80566471 -21.69238281 27.15698242 C-22.15708984 26.59172852 -22.62179688 26.02647461 -23.10058594 25.4440918 C-24.03127544 24.31090919 -24.95630227 23.1730511 -25.87548828 22.03051758 C-26.80173841 20.89836122 -27.74929452 19.78333422 -28.71630859 18.68579102 C-32.25488281 14.65363617 -32.25488281 14.65363617 -32.25488281 11.34448242 C-28.06366418 9.57899813 -23.86469085 7.8340774 -19.65722656 6.10766602 C-18.22717661 5.51754332 -16.79940453 4.92186887 -15.37402344 4.32055664 C-13.32442849 3.45704345 -11.26746477 2.61384205 -9.20800781 1.77416992 C-8.57243958 1.501362 -7.93687134 1.22855408 -7.28204346 0.94747925 C-2.84829469 -0.8280285 -2.84829469 -0.8280285 0 0 Z " fill="#2BC8FD" transform="translate(59.2548828125,68.655517578125)"/>
<path d="M0 0 C2.125 0.375 2.125 0.375 4 1 C4.625 2.875 4.625 2.875 5 5 C4.34 5.66 3.68 6.32 3 7 C1.68 7 0.36 7 -1 7 C-1.625 4.625 -1.625 4.625 -2 2 C-1.34 1.34 -0.68 0.68 0 0 Z " fill="#F0F0F0" transform="translate(140,111)"/>
<path d="M0 0 C0.99 0 1.98 0 3 0 C3 2.31 3 4.62 3 7 C1.68 6.34 0.36 5.68 -1 5 C-0.67 3.35 -0.34 1.7 0 0 Z " fill="#F0F0F0" transform="translate(145,120)"/>
</svg>
